<svg width="366" height="153" viewBox="0 0 366 153" fill="none" xmlns="http://www.w3.org/2000/svg">
<rect width="366" height="153" fill="#1E1E1E"/>
<rect width="366" height="153" fill="white"/>
<g filter="url(#filter0_i_0_1)">
<path d="M33.72 47.76V46.8H50.808V47.76H46.104V113.04H50.808V114H33.72V113.04H38.136V47.76H33.72ZM98.3363 114C95.7123 114 93.6963 113.424 92.2883 112.272C90.9443 111.12 90.2403 109.968 90.1763 108.816L90.0803 107.184V77.04C90.0803 71.984 88.7683 68.752 86.1443 67.344C84.8003 66.704 83.1363 66.384 81.1523 66.384C77.0563 66.384 73.3763 68.016 70.1123 71.28C66.8483 74.48 65.2163 77.36 65.2163 79.92V114H58.4963V66H65.2163V76.944C66.3043 74.192 68.3203 71.632 71.2643 69.264C74.2083 66.832 77.4403 65.616 80.9603 65.616C84.4803 65.616 87.3283 65.968 89.5043 66.672C91.7443 67.312 93.3763 68.24 94.4003 69.456C96.0003 71.44 96.8003 74 96.8003 77.136V107.184C96.8003 109.04 97.1523 110.48 97.8563 111.504C98.6243 112.464 99.3923 112.976 100.16 113.04L101.216 113.232H104.192V114H98.3363ZM116.708 42V89.808L137.828 66H138.788L123.14 83.664L143.78 114H137.06L119.299 87.888L116.708 90.864V114H109.988V42H116.708Z" fill="#5C5C5C"/>
<path d="M178.028 69.36C177.004 68.528 175.34 67.824 173.036 67.248C170.796 66.672 169.1 66.384 167.948 66.384C166.796 66.384 166.124 66.384 165.932 66.384C162.476 66.448 159.98 67.344 158.444 69.072C156.908 70.736 156.14 72.624 156.14 74.736C156.14 76.848 156.812 78.64 158.156 80.112C159.5 81.52 161.164 82.64 163.148 83.472C165.196 84.24 167.372 85.136 169.676 86.16C172.044 87.184 174.22 88.24 176.204 89.328C178.252 90.352 179.948 91.888 181.292 93.936C182.636 95.92 183.308 98.416 183.308 101.424C183.308 104.432 182.252 106.992 180.14 109.104C178.028 111.216 175.66 112.624 173.036 113.328C170.476 114.032 167.692 114.384 164.684 114.384C158.156 114.384 153.26 112.944 149.996 110.064L150.572 109.488C151.852 110.704 153.74 111.696 156.236 112.464C158.796 113.232 161.26 113.616 163.628 113.616C167.404 113.616 170.508 112.592 172.94 110.544C175.436 108.432 176.684 105.84 176.684 102.768C176.684 99.632 175.756 97.136 173.9 95.28C172.044 93.36 169.772 91.888 167.084 90.864C164.46 89.776 161.804 88.72 159.116 87.696C156.428 86.608 154.156 85.136 152.3 83.28C150.444 81.36 149.516 79.152 149.516 76.656C149.516 74.16 150.092 72.144 151.244 70.608C152.396 69.008 153.932 67.888 155.852 67.248C159.116 66.16 162.38 65.616 165.644 65.616C171.148 65.616 175.436 66.64 178.508 68.688L178.028 69.36ZM189.581 66H196.301V77.904C197.389 74.96 199.405 72.176 202.349 69.552C205.293 66.928 208.621 65.616 212.333 65.616C225.325 65.616 231.821 73.232 231.821 88.464C231.821 105.744 223.437 114.384 206.669 114.384C203.661 114.384 200.205 113.68 196.301 112.272V138H189.581V66ZM212.237 66.384C208.269 66.384 204.685 68.112 201.485 71.568C198.285 74.96 196.557 78.032 196.301 80.784V111.408C200.205 112.88 203.629 113.616 206.573 113.616C218.925 113.616 225.101 105.2 225.101 88.368C225.101 73.712 220.813 66.384 212.237 66.384ZM249.32 114C246.696 114 244.68 113.424 243.272 112.272C241.928 111.12 241.224 109.968 241.16 108.816L241.064 107.184V66H247.784V107.184C247.784 109.04 248.136 110.48 248.84 111.504C249.608 112.464 250.344 112.976 251.048 113.04L252.2 113.232H255.176V114H249.32ZM241.64 55.248C240.872 54.48 240.488 53.52 240.488 52.368C240.488 51.216 240.872 50.256 241.64 49.488C242.408 48.656 243.368 48.24 244.52 48.24C245.672 48.24 246.632 48.656 247.4 49.488C248.232 50.256 248.648 51.216 248.648 52.368C248.648 53.52 248.232 54.48 247.4 55.248C246.632 56.016 245.672 56.4 244.52 56.4C243.368 56.4 242.408 56.016 241.64 55.248ZM279.332 70.128V68.112C276.452 69.264 273.828 71.6 271.46 75.12C269.092 78.576 267.844 81.84 267.716 84.912V114H260.996V66H267.716V81.264C268.74 77.552 270.692 74.064 273.572 70.8C276.452 67.472 279.716 65.744 283.364 65.616H283.748C285.028 65.616 286.084 66.064 286.916 66.96C287.812 67.792 288.26 68.848 288.26 70.128C288.26 71.408 287.812 72.464 286.916 73.296C286.084 74.128 285.028 74.544 283.748 74.544C282.468 74.544 281.412 74.128 280.58 73.296C279.748 72.464 279.332 71.408 279.332 70.128ZM299.118 90.576C299.118 98.512 300.494 104.336 303.246 108.048C306.062 111.76 309.742 113.616 314.286 113.616C320.686 113.616 326.382 112.656 331.374 110.736L331.662 111.408C326.542 113.392 320.75 114.384 314.286 114.384C307.886 114.384 302.67 112.464 298.638 108.624C294.606 104.784 292.59 98.864 292.59 90.864C292.59 82.864 294.702 76.656 298.926 72.24C303.15 67.824 308.526 65.616 315.054 65.616C320.302 65.616 324.718 67.184 328.302 70.32C331.886 73.456 333.678 78.096 333.678 84.24C333.678 84.56 333.678 84.88 333.678 85.2H299.406C299.214 86.928 299.118 88.72 299.118 90.576ZM327.15 84.432C327.086 78.288 325.902 73.744 323.598 70.8C321.294 67.856 318.318 66.384 314.67 66.384C311.022 66.384 307.758 67.984 304.878 71.184C302.062 74.384 300.27 78.8 299.502 84.432H327.15Z" fill="black"/>
</g>
<defs>
<filter id="filter0_i_0_1" x="33.72" y="42" width="299.958" height="100" filterUnits="userSpaceOnUse" color-interpolation-filters="sRGB">
<feFlood flood-opacity="0" result="BackgroundImageFix"/>
<feBlend mode="normal" in="SourceGraphic" in2="BackgroundImageFix" result="shape"/>
<feColorMatrix in="SourceAlpha" type="matrix" values="0 0 0 0 0 0 0 0 0 0 0 0 0 0 0 0 0 0 127 0" result="hardAlpha"/>
<feOffset dy="4"/>
<feGaussianBlur stdDeviation="2"/>
<feComposite in2="hardAlpha" operator="arithmetic" k2="-1" k3="1"/>
<feColorMatrix type="matrix" values="0 0 0 0 0 0 0 0 0 0 0 0 0 0 0 0 0 0 0.25 0"/>
<feBlend mode="normal" in2="shape" result="effect1_innerShadow_0_1"/>
</filter>
</defs>
</svg>
